<svg xmlns="http://www.w3.org/2000/svg" version="1.1" xmlns:xlink="http://www.w3.org/1999/xlink" xmlns:svgjs="http://svgjs.dev/svgjs" width="1000" height="229" viewBox="0 0 1000 229"><g transform="matrix(1,0,0,1,-0.606054967810735,0.577154297692033)"><svg viewBox="0 0 396 91" data-background-color="#ffffff" preserveAspectRatio="xMidYMid meet" height="229" width="1000" xmlns="http://www.w3.org/2000/svg" xmlns:xlink="http://www.w3.org/1999/xlink"><g id="tight-bounds" transform="matrix(1,0,0,1,0.2399979288935583,-0.2293491820583995)"><svg viewBox="0 0 395.52 91.45869870646877" height="91.45869870646877" width="395.52"><g><svg viewBox="0 0 576.2068936308863 133.24012104868913" height="91.45869870646877" width="395.52"><g><rect width="8.694451244555506" height="115.69330337078651" x="418.2803435721348" y="8.773408838951312" fill="#6840a5" opacity="1" stroke-width="0" stroke="transparent" fill-opacity="1" class="rect-o-0" data-fill-palette-color="primary" rx="1%" id="o-0" data-palette-color="#6840a5"></rect></g><g transform="matrix(1,0,0,1,0,18.41451745318352)"><svg viewBox="0 0 395.52 96.41108614232209" height="96.41108614232209" width="395.52"><g><svg viewBox="0 0 395.52 96.41108614232209" height="96.41108614232209" width="395.52"><g><svg viewBox="0 0 395.52 96.41108614232209" height="96.41108614232209" width="395.52"><g transform="matrix(1,0,0,1,0,0)"><svg width="395.52" viewBox="2.4000000953674316 -38.599998474121094 160.1800079345703 39.04999923706055" height="96.41108614232209" data-palette-color="#6840a5"><path d="M6.05 0.35Q4.5 0.35 3.45-0.7 2.4-1.75 2.4-3.3L2.4-3.3Q2.4-4.85 3.45-5.9 4.5-6.95 6.05-6.95L6.05-6.95Q7.55-6.95 8.6-5.9 9.65-4.85 9.65-3.3L9.65-3.3Q9.65-1.75 8.6-0.7 7.55 0.35 6.05 0.35L6.05 0.35ZM47.2-27.55L52.8-27.55 44.25 0 38.25 0 32.7-20.35 27.15 0 21.15 0 12.55-27.55 18.35-27.55 24.1-5.4 29.95-27.55 35.9-27.55 41.5-5.5 47.2-27.55ZM55.15-13.9Q55.15-18.05 56.87-21.25 58.59-24.45 61.57-26.23 64.55-28 68.15-28L68.15-28Q71.4-28 73.82-26.73 76.25-25.45 77.7-23.55L77.7-23.55 77.7-27.55 83.45-27.55 83.45 0 77.7 0 77.7-4.1Q76.25-2.15 73.75-0.85 71.25 0.45 68.05 0.45L68.05 0.45Q64.5 0.45 61.55-1.38 58.59-3.2 56.87-6.48 55.15-9.75 55.15-13.9L55.15-13.9ZM77.7-13.8Q77.7-16.65 76.52-18.75 75.34-20.85 73.45-21.95 71.55-23.05 69.34-23.05L69.34-23.05Q67.15-23.05 65.25-21.98 63.34-20.9 62.17-18.82 61-16.75 61-13.9L61-13.9Q61-11.05 62.17-8.9 63.34-6.75 65.27-5.63 67.2-4.5 69.34-4.5L69.34-4.5Q71.55-4.5 73.45-5.6 75.34-6.7 76.52-8.83 77.7-10.95 77.7-13.8L77.7-13.8ZM102.49-27.55L102.49-22.9 97.39-22.9 97.39 0 91.64 0 91.64-22.9 88.39-22.9 88.39-27.55 91.64-27.55 91.64-29.5Q91.64-34.25 94.17-36.43 96.69-38.6 102.09-38.6L102.09-38.6 102.09-33.85Q99.49-33.85 98.44-32.88 97.39-31.9 97.39-29.5L97.39-29.5 97.39-27.55 102.49-27.55ZM119.09-27.55L119.09-22.9 113.99-22.9 113.99 0 108.24 0 108.24-22.9 104.99-22.9 104.99-27.55 108.24-27.55 108.24-29.5Q108.24-34.25 110.76-36.43 113.29-38.6 118.69-38.6L118.69-38.6 118.69-33.85Q116.09-33.85 115.04-32.88 113.99-31.9 113.99-29.5L113.99-29.5 113.99-27.55 119.09-27.55ZM124.14-37L129.84-37 129.84 0 124.14 0 124.14-37ZM162.58-14.45Q162.58-12.9 162.38-11.65L162.38-11.65 141.33-11.65Q141.58-8.35 143.78-6.35 145.98-4.35 149.18-4.35L149.18-4.35Q153.78-4.35 155.68-8.2L155.68-8.2 161.83-8.2Q160.58-4.4 157.31-1.98 154.03 0.45 149.18 0.45L149.18 0.45Q145.23 0.45 142.11-1.33 138.98-3.1 137.21-6.33 135.43-9.55 135.43-13.8L135.43-13.8Q135.43-18.05 137.16-21.28 138.88-24.5 142.01-26.25 145.13-28 149.18-28L149.18-28Q153.08-28 156.13-26.3 159.18-24.6 160.88-21.53 162.58-18.45 162.58-14.45L162.58-14.45ZM141.38-16.25L156.63-16.25Q156.58-19.4 154.38-21.3 152.18-23.2 148.93-23.2L148.93-23.2Q145.98-23.2 143.88-21.33 141.78-19.45 141.38-16.25L141.38-16.25Z" opacity="1" transform="matrix(1,0,0,1,0,0)" fill="#6840a5" class="undefined-text-0" data-fill-palette-color="primary" id="text-0"></path></svg></g></svg></g></svg></g></svg></g><g transform="matrix(1,0,0,1,449.7351383888252,0)"><svg viewBox="0 0 126.47175524206118 133.24012104868913" height="133.24012104868913" width="126.47175524206118"><g><svg xmlns="http://www.w3.org/2000/svg" xmlns:xlink="http://www.w3.org/1999/xlink" version="1.0" x="0" y="0" viewBox="22.445999145507812 20.951000213623047 54.16999816894531 57.06900405883789" enable-background="new 0 0 100 100" xml:space="preserve" height="133.24012104868913" width="126.47175524206118" class="icon-icon-0" data-fill-palette-color="accent" id="icon-0"><g fill="#6840a5" data-fill-palette-color="accent"><path d="M31.687 42.188h8.775c0.621 0 1.123-0.502 1.123-1.123v-9.31c0-0.621-0.502-1.123-1.123-1.123h-8.775c-0.621 0-1.123 0.502-1.123 1.123v9.31C30.563 41.686 31.065 42.188 31.687 42.188zM32.81 32.878h6.529v7.064H32.81V32.878z" fill="#6840a5" data-fill-palette-color="accent"></path><path d="M44.846 42.188h8.771c0.621 0 1.123-0.502 1.123-1.123v-9.31c0-0.621-0.502-1.123-1.123-1.123h-8.771c-0.621 0-1.123 0.502-1.123 1.123v9.31C43.724 41.686 44.226 42.188 44.846 42.188zM45.969 32.878h6.525v7.064h-6.525V32.878z" fill="#6840a5" data-fill-palette-color="accent"></path><path d="M58.599 42.188h8.774c0.623 0 1.123-0.502 1.123-1.123v-9.31c0-0.621-0.5-1.123-1.123-1.123h-8.774c-0.62 0-1.123 0.502-1.123 1.123v9.31C57.476 41.686 57.979 42.188 58.599 42.188zM59.722 32.878h6.528v7.064h-6.528V32.878z" fill="#6840a5" data-fill-palette-color="accent"></path><path d="M64.947 33.558h-3.838c-0.25 0-0.451 0.202-0.451 0.452 0 0.246 0.201 0.447 0.451 0.447H64.5v3.926c0 0.248 0.201 0.45 0.447 0.45 0.25 0 0.451-0.202 0.451-0.45V34.01C65.398 33.76 65.197 33.558 64.947 33.558z" fill="#6840a5" data-fill-palette-color="accent"></path><path d="M64.947 46.69h-3.838c-0.25 0-0.451 0.202-0.451 0.452 0 0.246 0.201 0.448 0.451 0.448H64.5v3.923c0 0.246 0.201 0.447 0.447 0.447 0.25 0 0.451-0.201 0.451-0.447v-4.372C65.398 46.891 65.197 46.69 64.947 46.69z" fill="#6840a5" data-fill-palette-color="accent"></path><path d="M64.947 59.729h-3.838c-0.25 0-0.451 0.201-0.451 0.447 0 0.25 0.201 0.451 0.451 0.451H64.5v3.926c0 0.246 0.201 0.447 0.447 0.447 0.25 0 0.451-0.201 0.451-0.447v-4.377C65.398 59.93 65.197 59.729 64.947 59.729z" fill="#6840a5" data-fill-palette-color="accent"></path><path d="M37.909 38.148h-3.391v-3.923c0-0.25-0.202-0.452-0.45-0.452s-0.449 0.202-0.449 0.452v4.373c0 0.248 0.202 0.45 0.449 0.45h3.84c0.248 0 0.45-0.202 0.45-0.45C38.358 38.35 38.157 38.148 37.909 38.148z" fill="#6840a5" data-fill-palette-color="accent"></path><path d="M51.22 34.045c-0.246 0-0.447 0.202-0.447 0.448v3.391h-3.925c-0.248 0-0.45 0.202-0.45 0.452 0 0.246 0.202 0.447 0.45 0.447h4.371c0.247 0 0.449-0.202 0.449-0.447v-3.842C51.668 34.247 51.467 34.045 51.22 34.045z" fill="#6840a5" data-fill-palette-color="accent"></path><path d="M51.22 47.115c-0.246 0-0.447 0.202-0.447 0.452v3.389h-3.925c-0.248 0-0.45 0.202-0.45 0.447 0 0.25 0.202 0.452 0.45 0.452h4.371c0.247 0 0.449-0.202 0.449-0.452v-3.836C51.668 47.317 51.467 47.115 51.22 47.115z" fill="#6840a5" data-fill-palette-color="accent"></path><path d="M51.22 60.184c-0.246 0-0.447 0.203-0.447 0.453v3.391h-3.925c-0.248 0-0.45 0.202-0.45 0.447 0 0.25 0.202 0.451 0.45 0.451h4.371c0.247 0 0.449-0.201 0.449-0.451v-3.838C51.668 60.387 51.467 60.184 51.22 60.184z" fill="#6840a5" data-fill-palette-color="accent"></path><path d="M37.909 51.188h-3.391v-3.924c0-0.25-0.202-0.452-0.45-0.452s-0.449 0.202-0.449 0.452v4.371c0 0.25 0.202 0.453 0.449 0.453h3.84c0.248 0 0.45-0.203 0.45-0.453C38.358 51.391 38.157 51.188 37.909 51.188z" fill="#6840a5" data-fill-palette-color="accent"></path><path d="M37.909 64.229h-3.391v-3.927c0-0.25-0.202-0.451-0.45-0.451s-0.449 0.201-0.449 0.451v4.373c0 0.25 0.202 0.453 0.449 0.453h3.84c0.248 0 0.45-0.203 0.45-0.453C38.358 64.43 38.157 64.229 37.909 64.229z" fill="#6840a5" data-fill-palette-color="accent"></path><path d="M31.687 55.26h8.775c0.621 0 1.123-0.5 1.123-1.123v-9.306c0-0.621-0.502-1.123-1.123-1.123h-8.775c-0.621 0-1.123 0.502-1.123 1.123v9.306C30.563 54.76 31.065 55.26 31.687 55.26zM32.81 45.954h6.529v7.06H32.81V45.954z" fill="#6840a5" data-fill-palette-color="accent"></path><path d="M44.846 55.26h8.771c0.621 0 1.123-0.5 1.123-1.123v-9.306c0-0.621-0.502-1.123-1.123-1.123h-8.771c-0.621 0-1.123 0.502-1.123 1.123v9.306C43.724 54.76 44.226 55.26 44.846 55.26zM45.969 45.954h6.525v7.06h-6.525V45.954z" fill="#6840a5" data-fill-palette-color="accent"></path><path d="M58.599 55.26h8.774c0.623 0 1.123-0.5 1.123-1.123v-9.306c0-0.621-0.5-1.123-1.123-1.123h-8.774c-0.62 0-1.123 0.502-1.123 1.123v9.306C57.476 54.76 57.979 55.26 58.599 55.26zM59.722 45.954h6.528v7.06h-6.528V45.954z" fill="#6840a5" data-fill-palette-color="accent"></path><path d="M31.687 68.336h8.775c0.621 0 1.123-0.5 1.123-1.123v-9.309c0-0.623-0.502-1.123-1.123-1.123h-8.775c-0.621 0-1.123 0.5-1.123 1.123v9.309C30.563 67.836 31.065 68.336 31.687 68.336zM32.81 59.027h6.529v7.062H32.81V59.027z" fill="#6840a5" data-fill-palette-color="accent"></path><path d="M44.846 68.336h8.771c0.621 0 1.123-0.5 1.123-1.123v-9.309c0-0.623-0.502-1.123-1.123-1.123h-8.771c-0.621 0-1.123 0.5-1.123 1.123v9.309C43.724 67.836 44.226 68.336 44.846 68.336zM45.969 59.027h6.525v7.062h-6.525V59.027z" fill="#6840a5" data-fill-palette-color="accent"></path><path d="M58.599 68.336h8.774c0.623 0 1.123-0.5 1.123-1.123v-9.309c0-0.623-0.5-1.123-1.123-1.123h-8.774c-0.62 0-1.123 0.5-1.123 1.123v9.309C57.476 67.836 57.979 68.336 58.599 68.336zM59.722 59.027h6.528v7.062h-6.528V59.027z" fill="#6840a5" data-fill-palette-color="accent"></path><path d="M73.47 20.951H25.591c-1.737 0-3.145 1.406-3.145 3.143v50.78c0 1.737 1.408 3.146 3.145 3.146H73.47c1.737 0 3.146-1.407 3.146-3.146V24.095C76.615 22.357 75.207 20.951 73.47 20.951zM73.47 74.875H25.591v-50.78H73.47V74.875L73.47 74.875z" fill="#6840a5" data-fill-palette-color="accent"></path></g></svg></g></svg></g></svg></g><defs></defs></svg><rect width="395.52" height="91.45869870646877" fill="none" stroke="none" visibility="hidden"></rect></g></svg></g></svg>